<svg width="137" height="34" viewBox="0 0 137 34" fill="none" xmlns="http://www.w3.org/2000/svg">
<path d="M51.5399 30.7441C49.2249 30.7441 47.2022 30.1999 45.4718 29.1115C43.7414 28.023 42.3968 26.5113 41.4381 24.5763C40.4794 22.6171 40 20.3434 40 17.7553C40 15.1431 40.4911 12.8452 41.4732 10.8618C42.4787 8.85426 43.8934 7.29416 45.7173 6.18152C47.5646 5.0447 49.751 4.47629 52.2765 4.47629C55.1526 4.47629 57.5378 5.18982 59.4319 6.6169C61.326 8.04397 62.5536 10.0153 63.1148 12.5308H58.099C57.7249 11.3456 57.0467 10.4265 56.0646 9.7734C55.0825 9.09614 53.8198 8.75751 52.2765 8.75751C49.8212 8.75751 47.9271 9.5678 46.5942 11.1884C45.2613 12.7848 44.5949 14.9858 44.5949 17.7916C44.5949 20.5974 45.2496 22.7743 46.5591 24.3223C47.892 25.8461 49.6926 26.608 51.9608 26.608C54.1822 26.608 55.8542 25.9913 56.9766 24.7577C58.1224 23.4999 58.8122 21.8552 59.046 19.8234H52.8377V16.3404H63.5708V30.3088H59.4319L59.0811 26.9709C58.2861 28.1802 57.2923 29.1115 56.0997 29.7645C54.9071 30.4176 53.3872 30.7441 51.5399 30.7441Z" fill="white"/>
<path d="M74.5297 30.7441C72.7759 30.7441 71.2209 30.3571 69.8647 29.5831C68.5084 28.8091 67.4444 27.7207 66.6728 26.3178C65.9011 24.9149 65.5153 23.2943 65.5153 21.4561C65.5153 19.5936 65.8894 17.9367 66.6377 16.4855C67.4094 15.0342 68.4616 13.9095 69.7945 13.1113C71.1508 12.2889 72.7409 11.8777 74.5648 11.8777C76.2718 11.8777 77.7801 12.2647 79.0895 13.0387C80.399 13.8127 81.4162 14.877 82.1411 16.2315C82.8894 17.5618 83.2635 19.0494 83.2635 20.6941C83.2635 20.9602 83.2518 21.2384 83.2285 21.5286C83.2285 21.8189 83.2168 22.1212 83.1934 22.4357H69.9699C70.0634 23.8386 70.5311 24.9391 71.3729 25.7373C72.2381 26.5355 73.2787 26.9346 74.4946 26.9346C75.4066 26.9346 76.1666 26.729 76.7746 26.3178C77.4059 25.8824 77.8736 25.3261 78.1776 24.6488H82.7374C82.41 25.7857 81.8605 26.8257 81.0888 27.7691C80.3406 28.6882 79.4052 29.4138 78.2828 29.9459C77.1838 30.4781 75.9327 30.7441 74.5297 30.7441ZM74.5648 15.651C73.4658 15.651 72.4953 15.9775 71.6535 16.6306C70.8117 17.2595 70.2739 18.227 70.04 19.5331H78.7037C78.6336 18.3479 78.2127 17.4046 77.441 16.7032C76.6693 16.0017 75.7106 15.651 74.5648 15.651Z" fill="white"/>
<path d="M93.7391 30.7441C91.9853 30.7441 90.4303 30.3571 89.074 29.5831C87.7178 28.8091 86.6538 27.7207 85.8821 26.3178C85.1105 24.9149 84.7247 23.2943 84.7247 21.4561C84.7247 19.5936 85.0988 17.9367 85.8471 16.4855C86.6187 15.0342 87.671 13.9095 89.0039 13.1113C90.3601 12.2889 91.9502 11.8777 93.7742 11.8777C95.4812 11.8777 96.9894 12.2647 98.2989 13.0387C99.6084 13.8127 100.626 14.877 101.35 16.2315C102.099 17.5618 102.473 19.0494 102.473 20.6941C102.473 20.9602 102.461 21.2384 102.438 21.5286C102.438 21.8189 102.426 22.1212 102.403 22.4357H89.1793C89.2728 23.8386 89.7405 24.9391 90.5823 25.7373C91.4475 26.5355 92.488 26.9346 93.704 26.9346C94.616 26.9346 95.3759 26.729 95.9839 26.3178C96.6153 25.8824 97.083 25.3261 97.3869 24.6488H101.947C101.619 25.7857 101.07 26.8257 100.298 27.7691C99.5499 28.6882 98.6146 29.4138 97.4922 29.9459C96.3931 30.4781 95.1421 30.7441 93.7391 30.7441ZM93.7742 15.651C92.6751 15.651 91.7047 15.9775 90.8629 16.6306C90.0211 17.2595 89.4832 18.227 89.2494 19.5331H97.9131C97.8429 18.3479 97.422 17.4046 96.6503 16.7032C95.8787 16.0017 94.92 15.651 93.7742 15.651Z" fill="white"/>
<path d="M104.495 30.3088V4.18604H108.985V19.6057L115.158 12.3131H120.49L113.369 20.5127L121.647 30.3088H116.035L108.985 21.2747V30.3088H104.495Z" fill="white"/>
<path d="M129.011 30.7441C127.468 30.7441 126.112 30.4902 124.942 29.9822C123.773 29.4501 122.838 28.7245 122.136 27.8053C121.435 26.8862 121.014 25.8219 120.874 24.6126H125.398C125.539 25.314 125.913 25.9187 126.521 26.4266C127.152 26.9104 127.959 27.1523 128.941 27.1523C129.923 27.1523 130.636 26.9467 131.081 26.5355C131.548 26.1243 131.782 25.6526 131.782 25.1205C131.782 24.3465 131.455 23.8265 130.8 23.5604C130.145 23.2701 129.233 22.992 128.064 22.7259C127.316 22.5566 126.556 22.351 125.784 22.1091C125.013 21.8673 124.299 21.5649 123.645 21.2021C123.013 20.8151 122.499 20.3313 122.101 19.7508C121.704 19.1461 121.505 18.4084 121.505 17.5377C121.505 15.9413 122.113 14.5988 123.329 13.5104C124.568 12.422 126.299 11.8777 128.52 11.8777C130.578 11.8777 132.215 12.3736 133.431 13.3653C134.67 14.357 135.407 15.7236 135.64 17.4651H131.396C131.139 16.1348 130.169 15.4696 128.485 15.4696C127.643 15.4696 126.988 15.6389 126.521 15.9775C126.076 16.3162 125.854 16.7395 125.854 17.2474C125.854 17.7795 126.193 18.2028 126.872 18.5173C127.55 18.8317 128.45 19.1219 129.572 19.388C130.788 19.6783 131.899 20.0048 132.905 20.3676C133.933 20.7062 134.752 21.2263 135.36 21.9277C135.968 22.605 136.272 23.5846 136.272 24.8665C136.295 25.9792 136.015 26.983 135.43 27.8779C134.845 28.7728 134.004 29.4743 132.905 29.9822C131.805 30.4902 130.508 30.7441 129.011 30.7441Z" fill="white"/>
<path d="M11.7523 19.2836C11.7523 19.6527 11.55 19.952 11.3003 19.952C11.0507 19.952 10.8483 19.6527 10.8483 19.2836C10.8483 18.9144 11.0507 18.6152 11.3003 18.6152C11.55 18.6152 11.7523 18.9144 11.7523 19.2836Z" fill="#754FFE"/>
<path d="M20.1146 19.2836C20.1146 19.6527 20.317 19.952 20.5667 19.952C20.8163 19.952 21.0187 19.6527 21.0187 19.2836C21.0187 18.9144 20.8163 18.6152 20.5667 18.6152C20.317 18.6152 20.1146 18.9144 20.1146 19.2836Z" fill="#754FFE"/>
<path d="M16.9129 23.6282C16.1595 24.2223 15.1425 23.9253 14.8788 23.6282C14.9541 23.9995 15.2404 24.5194 15.9335 24.5194C16.6266 24.5194 16.8752 23.9253 16.9129 23.6282Z" fill="#754FFE"/>
<path fill-rule="evenodd" clip-rule="evenodd" d="M28.998 15.2535C29.8564 13.0993 30.7244 8.60045 28.8536 6.24987C29.5442 5.54433 31.1589 4.3412 32.093 4.87593C31.8545 3.00686 29.9795 -0.600804 24.4088 0.0856832C23.1954 0.235203 22.3155 0.504511 21.4857 0.75845C19.4305 1.38746 17.6832 1.92218 11.9407 0.308478C7.4582 -0.694099 3.91744 2.09092 3.91744 4.95019C2.18514 6.1753 0.264619 9.44153 2.82319 15.2688C1.97885 15.559 1.33008 16.2605 1.12389 17.1298H0.452013C0.202372 17.1298 0 17.3293 0 17.5754V18.7637C0 19.0098 0.202372 19.2093 0.452013 19.2093H1.0547V21.5116C1.0547 22.9472 2.23521 24.1109 3.69144 24.1109H11.9784C13.4346 24.1109 14.6151 22.9472 14.6151 21.5116V20.3233H17.2519V21.5116C17.2519 22.9472 18.4324 24.1109 19.8886 24.1109H28.1756C29.6318 24.1109 30.8123 22.9472 30.8123 21.5116V19.2093H31.3397C31.5893 19.2093 31.7917 19.0098 31.7917 18.7637V17.5754C31.7917 17.3293 31.5893 17.1298 31.3397 17.1298H30.7431C30.5332 16.2448 29.8646 15.5337 28.998 15.2535ZM4.72722 14.9971C4.73373 15.0409 4.74005 15.0834 4.74613 15.1246H11.9784C13.4346 15.1246 14.6151 16.2884 14.6151 17.7239V18.2438H17.2519V17.7239C17.2519 16.2884 18.4324 15.1246 19.8886 15.1246H26.9217C27.3272 10.4779 26.8602 8.60741 26.4052 8.29223C20.9576 12.174 16.0918 10.9402 14.5878 10.5588C14.1783 10.455 14.018 10.4143 14.1631 10.5574C14.6052 10.9932 15.6113 11.5163 16.3286 11.8892L16.3287 11.8892C16.4914 11.9738 16.6392 12.0506 16.7622 12.117C10.8486 12.1844 8.47127 9.37731 7.77231 8.552C7.70105 8.46784 7.64722 8.40429 7.60888 8.3665C7.26778 8.03024 5.34881 6.88115 4.74612 9.07204C4.16235 11.1942 4.53206 13.6832 4.72722 14.9971ZM7.54559 2.82528C9.50058 0.840393 13.2209 1.36469 14.6648 1.85981C11.5384 0.0773948 8.44962 1.11714 7.20658 1.71127C5.96355 2.30541 4.3815 4.31063 5.05952 4.97901C5.73754 5.64739 6.6039 4.08783 6.6039 4.08783C6.6039 4.08783 7.11314 3.26435 7.54559 2.82528ZM3.69144 16.6099H11.9784C12.6025 16.6099 13.1084 17.1087 13.1084 17.7239V21.5116C13.1084 22.1268 12.6025 22.6256 11.9784 22.6256H3.69144C3.06734 22.6256 2.56141 22.1268 2.56141 21.5116V17.7239C2.56141 17.1087 3.06734 16.6099 3.69144 16.6099ZM28.1756 16.6099H19.8886C19.2645 16.6099 18.7586 17.1087 18.7586 17.7239V21.5116C18.7586 22.1268 19.2645 22.6256 19.8886 22.6256H28.1756C28.7997 22.6256 29.3056 22.1268 29.3056 21.5116V17.7239C29.3056 17.1087 28.7997 16.6099 28.1756 16.6099Z" fill="#754FFE"/>
<path fill-rule="evenodd" clip-rule="evenodd" d="M14.3643 26.3345C14.3956 26.1943 14.5363 26.1057 14.6785 26.1365L17.34 26.7142C17.4822 26.7451 17.5721 26.8837 17.5408 27.0239C17.5095 27.1641 17.3688 27.2528 17.2266 27.2219L14.5651 26.6443C14.4229 26.6134 14.333 26.4747 14.3643 26.3345Z" fill="#754FFE"/>
<path d="M15.8958 32.5031C10.6525 32.5625 6.80531 27.7995 5.53716 25.4106C5.34883 25.0558 5.19817 25.0021 5.08516 25.0764C4.90436 25.1952 5.03492 25.4354 5.08514 25.5591C5.71796 27.0148 6.5793 28.2451 6.93086 28.6784C5.69536 30.6984 5.28604 32.7136 5.23581 33.4686C7.28494 31.4782 9.35416 31.5748 10.1326 31.8719C16.2348 34.9911 19.625 32.8002 21.546 31.8719C23.0829 31.1292 25.476 32.5774 26.4805 33.3943C26.36 31.5525 25.3505 29.5324 24.8608 28.7526C25.6518 27.7129 26.2922 26.4503 26.6312 25.8191C26.9024 25.3141 26.8195 25.1135 26.7442 25.0764C26.5634 24.9873 26.3424 25.2621 26.2545 25.4106C25.6895 26.3389 22.45 32.4289 15.8958 32.5031Z" fill="#754FFE"/>
</svg>
